<svg width="40" height="40" viewBox="0 0 40 40" fill="none" xmlns="http://www.w3.org/2000/svg">
<mask id="mask0_154_3" style="mask-type:alpha" maskUnits="userSpaceOnUse" x="0" y="0" width="40" height="40">
<rect width="40" height="40" fill="#D9D9D9"/>
</mask>
<g mask="url(#mask0_154_3)">
<path d="M7.29375 19.5888C6.29958 19.5888 5.46042 19.2456 4.77625 18.5592C4.09208 17.8728 3.75 17.0325 3.75 16.0383C3.75 15.0442 4.09319 14.205 4.77958 13.5208C5.46597 12.8367 6.30625 12.4946 7.30042 12.4946C8.29458 12.4946 9.13375 12.8378 9.81792 13.5242C10.5021 14.2106 10.8442 15.0508 10.8442 16.045C10.8442 17.0392 10.5008 17.8783 9.81417 18.5625C9.12778 19.2467 8.28764 19.5888 7.29375 19.5888ZM14.8954 12.7192C13.9046 12.7192 13.0671 12.3758 12.3829 11.6892C11.6988 11.0028 11.3567 10.1626 11.3567 9.16875C11.3567 8.17458 11.6999 7.33542 12.3862 6.65125C13.0726 5.96708 13.9128 5.625 14.9067 5.625C15.8942 5.625 16.7317 5.9682 17.4192 6.65458C18.1069 7.34097 18.4508 8.18125 18.4508 9.17542C18.4508 10.1696 18.106 11.0087 17.4163 11.6929C16.7265 12.3771 15.8862 12.7192 14.8954 12.7192ZM25.0983 12.7192C24.1075 12.7192 23.27 12.3758 22.5858 11.6892C21.9019 11.0028 21.56 10.1626 21.56 9.16875C21.56 8.17458 21.9031 7.33542 22.5892 6.65125C23.2756 5.96708 24.1158 5.625 25.11 5.625C26.0972 5.625 26.9347 5.9682 27.6225 6.65458C28.31 7.34097 28.6538 8.18125 28.6538 9.17542C28.6538 10.1696 28.3089 11.0087 27.6192 11.6929C26.9294 12.3771 26.0892 12.7192 25.0983 12.7192ZM32.6996 19.5888C31.7054 19.5888 30.8662 19.2456 30.1821 18.5592C29.4979 17.8728 29.1558 17.0325 29.1558 16.0383C29.1558 15.0442 29.4992 14.205 30.1858 13.5208C30.8722 12.8367 31.7124 12.4946 32.7063 12.4946C33.7004 12.4946 34.5396 12.8378 35.2238 13.5242C35.9079 14.2106 36.25 15.0508 36.25 16.045C36.25 17.0392 35.9068 17.8783 35.2204 18.5625C34.534 19.2467 33.6938 19.5888 32.6996 19.5888ZM11.0833 36.4583C9.98139 36.4583 9.07306 36.0406 8.35833 35.205C7.64361 34.3697 7.28625 33.3829 7.28625 32.2446C7.28625 30.9826 7.70542 29.8824 8.54375 28.9438C9.38208 28.0054 10.2265 27.0772 11.0771 26.1592C11.7885 25.4114 12.4254 24.6158 12.9879 23.7725C13.5501 22.9292 14.1461 22.1008 14.7758 21.2875C15.4489 20.3708 16.2083 19.5433 17.0542 18.805C17.9 18.0667 18.8819 17.6975 20 17.6975C21.13 17.6975 22.1258 18.0629 22.9875 18.7937C23.8492 19.5246 24.6111 20.3593 25.2733 21.2979C25.9044 22.1043 26.4953 22.9294 27.0458 23.7733C27.5964 24.6175 28.2221 25.4128 28.9229 26.1592C29.7735 27.0772 30.6179 28.0054 31.4563 28.9438C32.2946 29.8824 32.7138 30.9826 32.7138 32.2446C32.7138 33.3829 32.3564 34.3697 31.6417 35.205C30.9269 36.0406 30.0186 36.4583 28.9167 36.4583C27.4167 36.4583 25.9306 36.3333 24.4583 36.0833C22.9861 35.8333 21.5 35.7083 20 35.7083C18.5 35.7083 17.0139 35.8333 15.5417 36.0833C14.0694 36.3333 12.5833 36.4583 11.0833 36.4583Z" fill="#26C602"/>
</g>
</svg>
