<svg width="25" height="25" viewBox="0 0 25 25" fill="none" xmlns="http://www.w3.org/2000/svg">
<mask id="mask0_141_7" style="mask-type:alpha" maskUnits="userSpaceOnUse" x="0" y="0" width="25" height="25">
<rect x="0.215759" y="0.597046" width="24" height="24" fill="#D9D9D9"/>
</mask>
<g mask="url(#mask0_141_7)">
<path d="M7.52351 21.097C7.02634 21.097 6.60076 20.92 6.24676 20.566C5.89276 20.212 5.71576 19.7864 5.71576 19.2893V6.59702H5.46576C5.25326 6.59702 5.07518 6.52511 4.93151 6.38127C4.78768 6.23744 4.71576 6.05927 4.71576 5.84677C4.71576 5.63411 4.78768 5.45602 4.93151 5.31252C5.07518 5.16886 5.25326 5.09702 5.46576 5.09702H9.21576C9.21576 4.85219 9.30201 4.64353 9.47451 4.47103C9.64684 4.29869 9.85543 4.21252 10.1003 4.21252H14.3313C14.5761 4.21252 14.7847 4.29869 14.957 4.47103C15.1295 4.64353 15.2158 4.85219 15.2158 5.09702H18.9658C19.1783 5.09702 19.3563 5.16894 19.5 5.31277C19.6438 5.45661 19.7158 5.63477 19.7158 5.84727C19.7158 6.05994 19.6438 6.23802 19.5 6.38152C19.3563 6.52519 19.1783 6.59702 18.9658 6.59702H18.7158V19.2893C18.7158 19.7864 18.5388 20.212 18.1848 20.566C17.8308 20.92 17.4052 21.097 16.908 21.097H7.52351ZM17.2158 6.59702H7.21576V19.2893C7.21576 19.3791 7.24459 19.4529 7.30226 19.5105C7.35993 19.5682 7.43368 19.597 7.52351 19.597H16.908C16.9978 19.597 17.0716 19.5682 17.1293 19.5105C17.1869 19.4529 17.2158 19.3791 17.2158 19.2893V6.59702ZM10.37 17.597C10.5825 17.597 10.7606 17.5252 10.9043 17.3815C11.0478 17.2377 11.1195 17.0595 11.1195 16.847V9.34702C11.1195 9.13452 11.0476 8.95636 10.9038 8.81252C10.7601 8.66886 10.5819 8.59702 10.3693 8.59702C10.1568 8.59702 9.97868 8.66886 9.83501 8.81252C9.69151 8.95636 9.61976 9.13452 9.61976 9.34702V16.847C9.61976 17.0595 9.69159 17.2377 9.83526 17.3815C9.97909 17.5252 10.1573 17.597 10.37 17.597ZM14.0623 17.597C14.2748 17.597 14.4528 17.5252 14.5965 17.3815C14.74 17.2377 14.8118 17.0595 14.8118 16.847V9.34702C14.8118 9.13452 14.7399 8.95636 14.5963 8.81252C14.4524 8.66886 14.2742 8.59702 14.0615 8.59702C13.849 8.59702 13.6709 8.66886 13.5273 8.81252C13.3838 8.95636 13.312 9.13452 13.312 9.34702V16.847C13.312 17.0595 13.3839 17.2377 13.5278 17.3815C13.6714 17.5252 13.8496 17.597 14.0623 17.597Z" fill="#1055DA"/>
</g>
</svg>
