<svg width="25" height="25" viewBox="0 0 25 25" fill="none" xmlns="http://www.w3.org/2000/svg">
<mask id="mask0_145_13" style="mask-type:alpha" maskUnits="userSpaceOnUse" x="0" y="0" width="25" height="25">
<rect x="0.784241" y="0.402954" width="24" height="24" fill="#D9D9D9"/>
</mask>
<g mask="url(#mask0_145_13)">
<path d="M5.38226 20.8645C5.06443 20.935 4.79076 20.8555 4.56126 20.626C4.33176 20.3965 4.25226 20.1228 4.32276 19.805L5.15926 15.7895L9.39776 20.028L5.38226 20.8645ZM9.39776 20.028L5.15926 15.7895L16.3785 4.57023C16.7233 4.2254 17.1503 4.05298 17.6593 4.05298C18.1683 4.05298 18.5952 4.2254 18.94 4.57023L20.617 6.24723C20.9618 6.59206 21.1343 7.01898 21.1343 7.52798C21.1343 8.03698 20.9618 8.46389 20.617 8.80873L9.39776 20.028ZM17.4478 5.62423L7.22276 15.8395L9.34776 17.9645L19.563 7.73948C19.6207 7.68181 19.6495 7.60973 19.6495 7.52323C19.6495 7.43656 19.6207 7.3644 19.563 7.30673L17.8805 5.62423C17.8228 5.56656 17.7507 5.53773 17.664 5.53773C17.5775 5.53773 17.5054 5.56656 17.4478 5.62423Z" fill="#26C602"/>
</g>
</svg>
