<svg width="24" height="24" viewBox="0 0 24 24" fill="none" xmlns="http://www.w3.org/2000/svg">
<mask id="mask0_145_13" style="mask-type:alpha" maskUnits="userSpaceOnUse" x="0" y="0" width="24" height="24">
<rect width="24" height="24" fill="#D9D9D9"/>
</mask>
<g mask="url(#mask0_145_13)">
<path d="M4.59802 20.4615C4.28019 20.532 4.00652 20.4525 3.77702 20.223C3.54752 19.9935 3.46802 19.7199 3.53852 19.402L4.37502 15.3865L8.61352 19.625L4.59802 20.4615ZM8.61352 19.625L4.37502 15.3865L15.5943 4.16727C15.9391 3.82244 16.366 3.65002 16.875 3.65002C17.384 3.65002 17.8109 3.82244 18.1558 4.16727L19.8328 5.84427C20.1776 6.18911 20.35 6.61602 20.35 7.12502C20.35 7.63402 20.1776 8.06094 19.8328 8.40577L8.61352 19.625ZM16.6635 5.22127L6.43852 15.4365L8.56352 17.5615L18.7788 7.33652C18.8364 7.27886 18.8653 7.20677 18.8653 7.12027C18.8653 7.03361 18.8364 6.96144 18.7788 6.90377L17.0963 5.22127C17.0386 5.16361 16.9664 5.13477 16.8798 5.13477C16.7933 5.13477 16.7212 5.16361 16.6635 5.22127Z" fill="#1055DA"/>
</g>
</svg>
