<svg width="40" height="40" viewBox="0 0 40 40" fill="none" xmlns="http://www.w3.org/2000/svg">
<mask id="mask0_36_195" style="mask-type:alpha" maskUnits="userSpaceOnUse" x="0" y="0" width="40" height="40">
<rect width="40" height="40" fill="#D9D9D9"/>
</mask>
<g mask="url(#mask0_36_195)">
<path d="M8.60708 34.3333C7.89069 34.3333 7.27708 34.0779 6.76625 33.5671C6.25542 33.0562 6 32.4426 6 31.7262V8.60708C6 7.89069 6.25542 7.27708 6.76625 6.76625C7.27708 6.25542 7.89069 6 8.60708 6H19.1188C19.416 6 19.6647 6.10069 19.865 6.30208C20.0653 6.50347 20.1654 6.75347 20.1654 7.05208C20.1654 7.35069 20.0653 7.59903 19.865 7.79708C19.6647 7.99514 19.416 8.09417 19.1188 8.09417H8.60708C8.47875 8.09417 8.36111 8.1475 8.25417 8.25417C8.1475 8.36111 8.09417 8.47875 8.09417 8.60708V31.7262C8.09417 31.8546 8.1475 31.9722 8.25417 32.0792C8.36111 32.1858 8.47875 32.2392 8.60708 32.2392H19.1188C19.416 32.2392 19.6647 32.3399 19.865 32.5413C20.0653 32.7426 20.1654 32.9926 20.1654 33.2913C20.1654 33.5899 20.0653 33.8382 19.865 34.0363C19.6647 34.2343 19.416 34.3333 19.1188 34.3333H8.60708ZM30.2958 21.2138H16.3738C16.0768 21.2138 15.8281 21.1131 15.6275 20.9117C15.4272 20.7103 15.3271 20.4603 15.3271 20.1617C15.3271 19.8631 15.4272 19.6147 15.6275 19.4167C15.8281 19.2186 16.0768 19.1196 16.3738 19.1196H30.2617L26.9329 15.7904C26.7321 15.5896 26.6318 15.3494 26.6321 15.07C26.6324 14.7906 26.7383 14.5422 26.95 14.325C27.1614 14.1078 27.4093 13.9994 27.6938 14C27.9782 14.0008 28.2301 14.1063 28.4496 14.3163L33.4038 19.2704C33.6638 19.5374 33.7938 19.8437 33.7938 20.1896C33.7938 20.5354 33.6638 20.8379 33.4038 21.0971L28.4671 26.0342C28.2713 26.2406 28.0319 26.3419 27.7492 26.3383C27.4664 26.3344 27.2113 26.2244 26.9837 26.0083C26.7796 25.7911 26.6789 25.5411 26.6817 25.2583C26.6844 24.9756 26.7917 24.7285 27.0033 24.5171L30.2958 21.2138Z" fill="white"/>
</g>
</svg>
