<svg width="40" height="40" viewBox="0 0 40 40" fill="none" xmlns="http://www.w3.org/2000/svg">
<mask id="mask0_229_13" style="mask-type:alpha" maskUnits="userSpaceOnUse" x="0" y="0" width="40" height="40">
<rect width="40" height="40" fill="#D9D9D9"/>
</mask>
<g mask="url(#mask0_229_13)">
<path d="M8.44046 35.8334C7.72407 35.8334 7.11046 35.5779 6.59962 35.0671C6.08879 34.5563 5.83337 33.9427 5.83337 33.2263V9.70086C5.83337 8.98447 6.08879 8.371 6.59962 7.86044C7.11046 7.34961 7.72407 7.09419 8.44046 7.09419H11.2609V5.09836C11.2609 4.78391 11.3677 4.51794 11.5813 4.30044C11.7949 4.08322 12.0596 3.97461 12.3755 3.97461C12.6991 3.97461 12.9699 4.08322 13.188 4.30044C13.406 4.51794 13.515 4.78391 13.515 5.09836V7.09419H26.5492V5.06919C26.5492 4.75475 26.6535 4.49364 26.8621 4.28586C27.0707 4.07836 27.3292 3.97461 27.6375 3.97461C27.9537 3.97461 28.2181 4.07919 28.4309 4.28836C28.6437 4.49752 28.75 4.75683 28.75 5.06628V7.09419H31.5596C32.276 7.09419 32.8896 7.34961 33.4005 7.86044C33.9113 8.371 34.1667 8.98447 34.1667 9.70086V17.4992C34.1667 17.7959 34.0659 18.0445 33.8642 18.245C33.6623 18.4456 33.4123 18.5459 33.1142 18.5459C32.8159 18.5459 32.5677 18.4452 32.3696 18.2438C32.1716 18.0421 32.0725 17.7922 32.0725 17.4942V16.9767H7.92754V33.2263C7.92754 33.3546 7.98087 33.4722 8.08754 33.5792C8.19449 33.6859 8.31212 33.7392 8.44046 33.7392H19.2309C19.5275 33.7392 19.7762 33.8402 19.9767 34.0421C20.1775 34.2438 20.278 34.4938 20.278 34.7921C20.278 35.0902 20.1775 35.3382 19.9767 35.5363C19.7762 35.7343 19.5275 35.8334 19.2309 35.8334H8.44046ZM23.5259 34.53V31.9509C23.5259 31.7925 23.5564 31.6354 23.6175 31.4796C23.6789 31.3238 23.7781 31.1772 23.915 31.04L32.5671 22.4279C32.776 22.2296 33.0016 22.0852 33.2438 21.9946C33.486 21.9043 33.727 21.8592 33.9667 21.8592C34.2281 21.8592 34.4813 21.9082 34.7263 22.0063C34.9713 22.1046 35.1939 22.2521 35.3942 22.4488L36.9359 24.0063C37.1267 24.2138 37.2685 24.4382 37.3613 24.6796C37.4538 24.921 37.5 25.1624 37.5 25.4038C37.5 25.6452 37.4532 25.8909 37.3596 26.1409C37.266 26.3909 37.1182 26.6207 36.9163 26.8304L28.3192 35.4438C28.182 35.581 28.0353 35.6802 27.8792 35.7413C27.7234 35.8027 27.5663 35.8334 27.408 35.8334H24.8292C24.4598 35.8334 24.1502 35.7085 23.9005 35.4588C23.6507 35.2088 23.5259 34.8992 23.5259 34.53ZM33.9713 27.0129L35.513 25.4038L33.9713 23.8463L32.388 25.4296L33.9713 27.0129Z" fill="#26C602"/>
</g>
</svg>
