<svg width="40" height="40" viewBox="0 0 40 40" fill="none" xmlns="http://www.w3.org/2000/svg">
<mask id="mask0_36_207" style="mask-type:alpha" maskUnits="userSpaceOnUse" x="0" y="0" width="40" height="40">
<rect width="40" height="40" fill="#D9D9D9"/>
</mask>
<g mask="url(#mask0_36_207)">
<path d="M8.4404 35.8334C7.72401 35.8334 7.1104 35.5779 6.59956 35.0671C6.08873 34.5563 5.83331 33.9427 5.83331 33.2263V9.70086C5.83331 8.98447 6.08873 8.371 6.59956 7.86044C7.1104 7.34961 7.72401 7.09419 8.4404 7.09419H11.2608V5.09836C11.2608 4.78391 11.3676 4.51794 11.5812 4.30044C11.7948 4.08322 12.0596 3.97461 12.3754 3.97461C12.699 3.97461 12.9698 4.08322 13.1879 4.30044C13.406 4.51794 13.515 4.78391 13.515 5.09836V7.09419H26.5491V5.06919C26.5491 4.75475 26.6535 4.49364 26.8621 4.28586C27.0707 4.07836 27.3291 3.97461 27.6375 3.97461C27.9536 3.97461 28.218 4.07919 28.4308 4.28836C28.6436 4.49752 28.75 4.75683 28.75 5.06628V7.09419H31.5596C32.276 7.09419 32.8896 7.34961 33.4004 7.86044C33.9112 8.371 34.1666 8.98447 34.1666 9.70086V17.4992C34.1666 17.7959 34.0658 18.0445 33.8641 18.245C33.6622 18.4456 33.4122 18.5459 33.1141 18.5459C32.8158 18.5459 32.5676 18.4452 32.3696 18.2438C32.1715 18.0421 32.0725 17.7922 32.0725 17.4942V16.9767H7.92748V33.2263C7.92748 33.3546 7.98081 33.4722 8.08748 33.5792C8.19442 33.6859 8.31206 33.7392 8.4404 33.7392H19.2308C19.5275 33.7392 19.7761 33.8402 19.9766 34.0421C20.1775 34.2438 20.2779 34.4938 20.2779 34.7921C20.2779 35.0902 20.1775 35.3382 19.9766 35.5363C19.7761 35.7343 19.5275 35.8334 19.2308 35.8334H8.4404ZM23.5258 34.53V31.9509C23.5258 31.7925 23.5564 31.6354 23.6175 31.4796C23.6789 31.3238 23.778 31.1772 23.915 31.04L32.5671 22.4279C32.776 22.2296 33.0015 22.0852 33.2437 21.9946C33.486 21.9043 33.7269 21.8592 33.9666 21.8592C34.228 21.8592 34.4812 21.9082 34.7262 22.0063C34.9712 22.1046 35.1939 22.2521 35.3941 22.4488L36.9358 24.0063C37.1266 24.2138 37.2685 24.4382 37.3612 24.6796C37.4537 24.921 37.5 25.1624 37.5 25.4038C37.5 25.6452 37.4532 25.8909 37.3596 26.1409C37.266 26.3909 37.1182 26.6207 36.9162 26.8304L28.3191 35.4438C28.1819 35.581 28.0353 35.6802 27.8791 35.7413C27.7233 35.8027 27.5662 35.8334 27.4079 35.8334H24.8291C24.4597 35.8334 24.1501 35.7085 23.9004 35.4588C23.6507 35.2088 23.5258 34.8992 23.5258 34.53ZM33.9712 27.0129L35.5129 25.4038L33.9712 23.8463L32.3879 25.4296L33.9712 27.0129Z" fill="#1055DA"/>
</g>
</svg>
