<svg width="40" height="40" viewBox="0 0 40 40" fill="none" xmlns="http://www.w3.org/2000/svg">
<mask id="mask0_229_5" style="mask-type:alpha" maskUnits="userSpaceOnUse" x="0" y="0" width="40" height="40">
<rect width="40" height="40" fill="#D9D9D9"/>
</mask>
<g mask="url(#mask0_229_5)">
<path d="M2.07254 29.6475C1.72837 29.6475 1.43587 29.5269 1.19504 29.2858C0.95393 29.045 0.833374 28.7523 0.833374 28.4079V27.8183C0.833374 26.77 1.39462 25.9082 2.51712 25.2329C3.63962 24.5576 5.10282 24.22 6.90671 24.22C7.19893 24.22 7.49754 24.2297 7.80254 24.2491C8.10726 24.2683 8.41421 24.3025 8.72337 24.3516C8.48837 24.8244 8.31115 25.3047 8.19171 25.7925C8.07254 26.2803 8.01296 26.78 8.01296 27.2916V29.6475H2.07254ZM12.1434 29.6475C11.767 29.6475 11.4545 29.5226 11.2059 29.2729C10.9575 29.0232 10.8334 28.7136 10.8334 28.3442V27.3558C10.8334 26.5755 11.0524 25.8623 11.4905 25.2162C11.9285 24.5698 12.5599 24.0064 13.3846 23.5258C14.2093 23.045 15.1838 22.6844 16.308 22.4441C17.4318 22.2036 18.6605 22.0833 19.9938 22.0833C21.3527 22.0833 22.5941 22.2036 23.718 22.4441C24.8418 22.6844 25.8162 23.045 26.6409 23.5258C27.4659 24.0064 28.0931 24.5698 28.5225 25.2162C28.952 25.8623 29.1667 26.5755 29.1667 27.3558V28.3442C29.1667 28.7136 29.0418 29.0232 28.7921 29.2729C28.5424 29.5226 28.2328 29.6475 27.8634 29.6475H12.1434ZM31.9871 29.6475V27.2937C31.9871 26.7515 31.9335 26.2379 31.8263 25.7529C31.7191 25.2682 31.5491 24.8018 31.3163 24.3537C31.6432 24.3032 31.9545 24.2683 32.25 24.2491C32.5456 24.2297 32.8355 24.22 33.1196 24.22C34.926 24.22 36.3855 24.5521 37.498 25.2162C38.6105 25.8804 39.1667 26.7478 39.1667 27.8183V28.4079C39.1667 28.7523 39.0462 29.045 38.805 29.2858C38.5642 29.5269 38.2717 29.6475 37.9275 29.6475H31.9871ZM6.88004 22.8046C6.15532 22.8046 5.53532 22.5453 5.02004 22.0266C4.50449 21.5083 4.24671 20.8844 4.24671 20.155C4.24671 19.4241 4.50601 18.8025 5.02462 18.29C5.54296 17.7778 6.16685 17.5216 6.89629 17.5216C7.62712 17.5216 8.25143 17.7778 8.76921 18.29C9.28699 18.8025 9.54587 19.4297 9.54587 20.1716C9.54587 20.8855 9.2899 21.5029 8.77796 22.0237C8.26601 22.5443 7.63337 22.8046 6.88004 22.8046ZM33.1075 22.8046C32.3906 22.8046 31.7718 22.5436 31.2513 22.0216C30.7305 21.5 30.47 20.8793 30.47 20.1596C30.47 19.4257 30.731 18.8025 31.253 18.29C31.7746 17.7778 32.398 17.5216 33.123 17.5216C33.8621 17.5216 34.488 17.7778 35.0005 18.29C35.513 18.8025 35.7692 19.4282 35.7692 20.1671C35.7692 20.8907 35.5137 21.5112 35.0025 22.0287C34.4914 22.546 33.8598 22.8046 33.1075 22.8046ZM20.0059 20.8333C18.8053 20.8333 17.7831 20.4126 16.9392 19.5712C16.0953 18.7301 15.6734 17.7086 15.6734 16.5066C15.6734 15.2805 16.0939 14.2529 16.935 13.4237C17.7764 12.5943 18.7981 12.1796 20 12.1796C21.2259 12.1796 22.2535 12.5937 23.083 13.4221C23.9121 14.2501 24.3267 15.2764 24.3267 16.5008C24.3267 17.7011 23.9127 18.7233 23.0846 19.5675C22.2563 20.4114 21.23 20.8333 20.0059 20.8333Z" fill="#26C602"/>
</g>
</svg>
