<svg width="40" height="40" viewBox="0 0 40 40" fill="none" xmlns="http://www.w3.org/2000/svg">
<mask id="mask0_168_20" style="mask-type:alpha" maskUnits="userSpaceOnUse" x="0" y="0" width="40" height="40">
<rect width="40" height="40" fill="#D9D9D9"/>
</mask>
<g mask="url(#mask0_168_20)">
<path d="M7.44878 18.0833C7.25933 17.8767 7.16461 17.6293 7.16461 17.3412C7.16461 17.0532 7.25933 16.8005 7.44878 16.5833L12.125 11.9242L9.79503 9.59291L8.72461 10.6633C8.50711 10.8805 8.25433 10.9892 7.96628 10.9892C7.67822 10.9892 7.431 10.8805 7.22461 10.6633C7.02433 10.4683 6.92419 10.2268 6.92419 9.93874C6.92419 9.65069 7.02433 9.40082 7.22461 9.18916L10.84 5.58999C11.0464 5.37277 11.2936 5.26416 11.5817 5.26416C11.8698 5.26416 12.1224 5.37277 12.3396 5.58999C12.5349 5.79082 12.6325 6.03666 12.6325 6.32749C12.6325 6.61833 12.5349 6.85847 12.3396 7.04791L11.2534 8.15166L13.5834 10.4658L18.2596 5.77249C18.4768 5.57388 18.7295 5.47458 19.0175 5.47458C19.3056 5.47458 19.5529 5.57388 19.7596 5.77249C19.9582 5.97916 20.0575 6.22652 20.0575 6.51457C20.0575 6.80263 19.9582 7.05527 19.7596 7.27249L18.5896 8.43374L21.9304 11.7575L17.6859 15.9596C17.4964 16.166 17.4017 16.4132 17.4017 16.7012C17.4017 16.9896 17.4964 17.233 17.6859 17.4317C17.8961 17.638 18.1471 17.7412 18.4388 17.7412C18.7304 17.7412 18.9795 17.638 19.1859 17.4317L23.3879 13.2317L26.8963 16.715L22.685 20.9254C22.4678 21.1426 22.3592 21.3953 22.3592 21.6833C22.3592 21.9714 22.4678 22.2186 22.685 22.425C22.8745 22.6147 23.1132 22.7054 23.4013 22.6971C23.6893 22.689 23.9309 22.5844 24.1259 22.3833L28.345 18.1721L31.2917 21.1187C31.8131 21.6215 32.0691 22.2383 32.0596 22.9692C32.0504 23.6997 31.7945 24.3147 31.2917 24.8142L29.6259 26.4775L35.6688 32.5008C35.841 32.6733 35.8841 32.8701 35.7979 33.0912C35.7118 33.3124 35.5488 33.4229 35.3088 33.4229H34.345C34.11 33.4229 33.8882 33.378 33.6796 33.2883C33.4707 33.1986 33.2863 33.0772 33.1263 32.9242L28.1538 27.9517L26.4884 29.6154C25.9961 30.1146 25.3875 30.3642 24.6625 30.3642C23.9373 30.3642 23.3175 30.1146 22.8034 29.6154L10.1188 16.9133L8.94878 18.0833C8.73156 18.2947 8.48156 18.4004 8.19878 18.4004C7.916 18.4004 7.666 18.2947 7.44878 18.0833Z" fill="white"/>
</g>
</svg>
